<svg width="100" height="100" viewBox="0 0 100 100" fill="none" xmlns="http://www.w3.org/2000/svg">
<path d="M82.3327 78.2213C83.3967 79.2835 83.5437 80.9536 82.6057 81.89L80.1137 84.3778C79.1757 85.3142 77.5027 85.1675 76.4387 84.1053L66.9467 74.6364C65.8827 73.5742 65.7847 71.9529 66.7227 71.0165L69.2147 68.5287C70.1527 67.5923 71.7767 67.6902 72.8407 68.7524L82.3327 78.2213Z" fill="#F26522"/>
<path d="M43.0065 52.4506C50.7308 52.4506 56.9925 51.925 56.9925 51.2766C56.9925 50.6282 50.7308 50.1025 43.0065 50.1025C35.2823 50.1025 29.0205 50.6282 29.0205 51.2766C29.0205 51.925 35.2823 52.4506 43.0065 52.4506Z" fill="#F26522"/>
<path d="M23.932 60.4997L24.877 59.5563C20.11 54.7904 17.681 48.5779 17.681 42.3445C17.681 39.1789 18.276 36.0133 19.466 33.0363C20.663 30.0594 22.455 27.2781 24.877 24.8602C27.278 22.4633 30.043 20.6744 32.99 19.4724C35.944 18.2774 39.08 17.6765 42.223 17.6765C45.373 17.6765 48.523 18.2774 51.484 19.4724C54.445 20.6674 57.217 22.4633 59.625 24.8672C62.033 27.2711 63.832 30.0454 65.029 33.0154C66.226 35.9783 66.821 39.13 66.821 42.2886C66.821 45.4123 66.219 48.543 65.015 51.485C63.811 54.427 62.019 57.1803 59.625 59.5702C57.224 61.9672 54.452 63.7631 51.498 64.9581C48.544 66.153 45.394 66.754 42.251 66.754C39.108 66.754 35.958 66.153 33.004 64.9581C30.05 63.7631 27.278 61.9672 24.877 59.5702L23.932 60.4997L22.987 61.4431C25.647 64.0985 28.72 66.0902 32.003 67.4179C35.286 68.7456 38.772 69.4095 42.258 69.4095C45.744 69.4095 49.23 68.7456 52.513 67.4179C55.796 66.0902 58.869 64.0915 61.529 61.4431C64.175 58.8015 66.177 55.7407 67.507 52.4773C68.837 49.2138 69.509 45.7407 69.509 42.2746C69.509 38.7876 68.851 35.2935 67.521 32.0021C66.191 28.7107 64.196 25.6289 61.529 22.9665C58.869 20.311 55.782 18.3124 52.499 16.9846C49.209 15.6639 45.716 15 42.23 15C38.744 15 35.265 15.6639 31.989 16.9986C28.713 18.3263 25.64 20.3249 22.987 22.9734C20.306 25.6499 18.311 28.7456 16.988 32.044C15.658 35.3424 15 38.8505 15 42.3445C15 49.2628 17.702 56.174 22.98 61.4431L23.932 60.4997Z" fill="#4378BD"/>
<path d="M27.0889 57.3479L27.7469 56.691C23.7779 52.7288 21.7409 47.5575 21.7409 42.3793C21.7409 39.7239 22.2309 37.0684 23.2249 34.5736C24.2189 32.0789 25.7239 29.7448 27.7469 27.7253C31.7509 23.728 36.9799 21.7294 42.2229 21.7294C44.8549 21.7294 47.4869 22.2256 49.9579 23.2249C52.4289 24.2242 54.7459 25.7197 56.7549 27.7253C58.7639 29.7308 60.2689 32.0509 61.2629 34.5247C62.2639 36.9985 62.7609 39.633 62.7609 42.2605C62.7609 47.4807 60.7449 52.6938 56.7549 56.684C52.7439 60.6812 47.5009 62.6798 42.2509 62.6798C37.0009 62.6798 31.7509 60.6812 27.7469 56.684L27.0889 57.3479L26.4309 58.0048C30.7989 62.3654 36.5249 64.5457 42.2509 64.5457C47.9699 64.5457 53.7029 62.3654 58.0709 58.0048C62.4249 53.6652 64.6229 47.9629 64.6229 42.2675C64.6229 39.4024 64.0839 36.5373 62.9919 33.8329C61.8999 31.1355 60.2619 28.5988 58.0709 26.4185C55.8869 24.2382 53.3529 22.596 50.6579 21.5058C47.9559 20.4157 45.0929 19.8706 42.2229 19.8706C36.5109 19.8706 30.7919 22.0579 26.4309 26.4115C24.2259 28.6127 22.5809 31.1634 21.4959 33.8888C20.4109 36.6072 19.8789 39.4932 19.8789 42.3793C19.8789 48.0467 22.1119 53.6931 26.4309 57.9978L27.0889 57.3479Z" fill="#4378BD"/>
<path d="M70.8463 64.804L70.3633 64.3218L66.6743 68.0045L60.7173 62.0507L63.9163 58.8571L70.3633 65.2932L70.8463 64.804L70.3633 64.3218L70.8463 64.804L71.3293 64.3218L63.9163 56.9214L58.7783 62.0507L66.6743 69.9333L71.8123 64.804L71.3293 64.3218L70.8463 64.804Z" fill="#4478BC"/>
<path d="M83.0748 75.0139L82.6618 75.4263C83.1098 75.8735 83.3408 76.4745 83.3408 77.0475C83.3408 77.3061 83.2988 77.5506 83.2078 77.7812C83.1168 78.0119 82.9838 78.2145 82.8088 78.3962L80.1348 81.0657C79.9528 81.2404 79.7498 81.3731 79.5188 81.464C79.2878 81.5548 79.0428 81.5968 78.7838 81.5968C78.2098 81.5968 77.6078 81.3662 77.1598 80.9189L67.6748 71.45C67.2338 71.0098 67.0238 70.4507 67.0238 69.9056C67.0238 69.3955 67.2128 68.9063 67.5838 68.536L70.2578 65.8665C70.6288 65.4961 71.1188 65.3144 71.6298 65.3075C72.1758 65.3075 72.7428 65.5241 73.1768 65.9573L82.6618 75.4263L83.0748 75.0139L83.4878 74.6017L74.0028 65.1258C73.3448 64.4689 72.4768 64.1265 71.6228 64.1265C70.8248 64.1265 70.0198 64.4269 69.4178 65.0279L66.7438 67.6974C66.1418 68.2984 65.8408 69.102 65.8408 69.8986C65.8408 70.7512 66.1768 71.6177 66.8418 72.2746L76.3268 81.7435C77.0058 82.4144 77.8948 82.7638 78.7838 82.7638C79.1758 82.7638 79.5748 82.6939 79.9458 82.5471C80.3168 82.4004 80.6668 82.1838 80.9608 81.8833L83.6348 79.2138C83.9288 78.9203 84.1528 78.5709 84.2998 78.2005C84.4468 77.8302 84.5168 77.4388 84.5168 77.0405C84.5168 76.16 84.1668 75.2655 83.4948 74.5877L83.0748 75.0139Z" fill="#3D4451"/>
<path d="M83.0744 75.0142L82.3184 75.7689C82.6754 76.1183 82.8574 76.6005 82.8574 77.0477C82.8574 77.2434 82.8224 77.4321 82.7594 77.5998C82.6964 77.7675 82.5984 77.9143 82.4654 78.047L79.7914 80.7165C79.6584 80.8493 79.5114 80.9401 79.3434 81.01C79.1754 81.0729 78.9864 81.1078 78.7904 81.1078C78.3424 81.1078 77.8594 80.9261 77.5094 80.5697L68.0174 71.1078C67.6674 70.7584 67.5064 70.3252 67.5064 69.9059C67.5064 69.7102 67.5414 69.5215 67.6114 69.3468C67.6814 69.1721 67.7794 69.0184 67.9194 68.8786L70.5934 66.2092C70.7334 66.0694 70.8874 65.9716 71.0624 65.9017C71.2374 65.8318 71.4264 65.7969 71.6224 65.7969C72.0424 65.7969 72.4834 65.9646 72.8264 66.307L82.3114 75.7759L83.0744 75.0142L83.8304 74.2595L74.3454 64.7836C73.5964 64.0359 72.6024 63.6445 71.6224 63.6445C71.1604 63.6445 70.7054 63.7284 70.2644 63.9031C69.8304 64.0778 69.4244 64.3364 69.0744 64.6858L66.4004 67.3552C66.0504 67.7046 65.7914 68.1099 65.6164 68.5432C65.4414 68.9765 65.3574 69.4377 65.3574 69.8919C65.3574 70.8702 65.7494 71.8626 66.4984 72.6103L75.9834 82.0862C76.7534 82.8549 77.7684 83.2532 78.7834 83.2532C79.2384 83.2532 79.6864 83.1763 80.1204 83.0086C80.5474 82.8409 80.9604 82.5823 81.3034 82.2399L83.9774 79.5704C84.3204 79.228 84.5794 78.8227 84.7474 78.3895C84.9154 77.9562 84.9994 77.509 84.9994 77.0547C84.9994 76.0415 84.6004 75.0282 83.8304 74.2595L83.0744 75.0142Z" fill="#4478BC"/>
<path d="M68.9698 70.7724L77.8668 79.6543C78.0978 79.8849 78.4688 79.8849 78.6998 79.6543C78.9308 79.4236 78.9308 79.0533 78.6998 78.8227L69.8028 69.9408C69.5718 69.7102 69.2008 69.7102 68.9698 69.9408C68.7458 70.1714 68.7458 70.5418 68.9698 70.7724Z" fill="#4478BC"/>
<path d="M41.7542 37.3759C41.9432 37.299 42.1392 37.2361 42.3422 37.1942C42.5452 37.1523 42.7552 37.1313 42.9722 37.1313C43.1892 37.1313 43.3992 37.1523 43.6022 37.1942C43.8052 37.2361 44.0012 37.299 44.1902 37.3759C44.3792 37.4527 44.5542 37.5576 44.7222 37.6694C44.8902 37.7812 45.0442 37.914 45.1842 38.0607C45.3242 38.2075 45.4572 38.3612 45.5692 38.5359C45.6812 38.7036 45.7792 38.8853 45.8562 39.081C45.9332 39.2697 45.9962 39.4723 46.0382 39.682C46.0802 39.8916 46.1012 40.1082 46.1012 40.3318C46.1012 40.7441 46.4372 41.0796 46.8502 41.0796C47.2632 41.0796 47.5992 40.7441 47.5992 40.3318C47.5992 40.0104 47.5642 39.6959 47.5082 39.3885C47.4452 39.081 47.3542 38.7875 47.2422 38.508C47.1232 38.2284 46.9832 37.9629 46.8152 37.7113C46.6472 37.4597 46.4582 37.2291 46.2482 37.0195C46.0382 36.8098 45.8072 36.6142 45.5622 36.4465C45.3172 36.2787 45.0512 36.132 44.7712 36.0132C44.4912 35.8944 44.2042 35.8035 43.8962 35.7407C43.5952 35.6778 43.2802 35.6428 42.9582 35.6428C42.6362 35.6428 42.3282 35.6778 42.0202 35.7407C41.7192 35.8035 41.4252 35.8944 41.1452 36.0132C40.7672 36.1739 40.5852 36.6212 40.7532 36.9985C40.9282 37.3619 41.3692 37.5436 41.7542 37.3759Z" fill="#2D2D2D"/>
<path d="M41.9153 41.9251C41.9153 41.8972 41.9153 41.7644 41.9153 41.5827C41.9153 41.3102 41.9223 40.9258 41.9293 40.5974C41.9293 40.4367 41.9363 40.2829 41.9363 40.1781C41.9363 40.1222 41.9433 40.0803 41.9433 40.0523V40.0314L41.6843 40.0104L41.9433 40.0383V40.0314L41.6843 40.0104L41.9433 40.0383L41.3483 39.9685L41.9363 40.0873C41.9433 40.0593 41.9433 40.0523 41.9433 40.0453L41.3483 39.9755L41.9363 40.0942C41.9503 40.0174 41.9713 39.9475 41.9993 39.8776C42.0273 39.8077 42.0623 39.7448 42.1043 39.6819C42.1463 39.6191 42.1883 39.5632 42.2373 39.5142C42.2863 39.4653 42.3423 39.4164 42.3983 39.3745C42.4543 39.3325 42.5173 39.2976 42.5803 39.2697C42.6433 39.2417 42.7133 39.2207 42.7833 39.2068H42.7903H42.7833C42.8533 39.1928 42.9233 39.1858 43.0003 39.1858C43.0773 39.1858 43.1473 39.1928 43.2173 39.2068C43.2873 39.2207 43.3503 39.2417 43.4203 39.2697C43.4833 39.2976 43.5463 39.3325 43.6023 39.3745C43.6583 39.4164 43.7143 39.4583 43.7633 39.5142C43.8123 39.5632 43.8613 39.626 43.8963 39.6819C43.9383 39.7448 43.9733 39.8077 44.0013 39.8776C44.0293 39.9475 44.0503 40.0174 44.0643 40.0942C44.0783 40.1711 44.0853 40.248 44.0853 40.3318V40.3388V40.3458V40.3738C44.0853 40.6533 44.0713 42.3933 43.7353 44.5317C43.5673 45.6009 43.3223 46.7679 42.9653 47.9C42.6083 49.032 42.1323 50.1222 41.5303 51.0376C41.2993 51.387 41.3973 51.8482 41.7473 52.0789C42.0973 52.3095 42.5593 52.2116 42.7903 51.8622C43.4973 50.7861 44.0083 49.5771 44.4003 48.3542C44.9813 46.5163 45.2753 44.6505 45.4293 43.176C45.5833 41.7015 45.5903 40.6253 45.5903 40.3808C45.5903 40.3458 45.5903 40.3318 45.5903 40.3249V40.3318C45.5903 40.1502 45.5693 39.9755 45.5413 39.8007C45.5063 39.626 45.4573 39.4653 45.3943 39.3046C45.3313 39.1439 45.2473 38.9971 45.1563 38.8574C45.0653 38.7176 44.9603 38.5848 44.8413 38.466C44.7223 38.3472 44.5963 38.2354 44.4563 38.1376C44.3163 38.0397 44.1693 37.9559 44.0153 37.893C43.8613 37.8231 43.6933 37.7742 43.5253 37.7393C43.3573 37.7043 43.1753 37.6833 43.0003 37.6833C42.8183 37.6833 42.6433 37.7043 42.4753 37.7393C42.3073 37.7742 42.1393 37.8301 41.9853 37.9C41.8313 37.9699 41.6773 38.0537 41.5443 38.1446C41.4043 38.2424 41.2783 38.3472 41.1593 38.473C41.0403 38.5918 40.9353 38.7246 40.8443 38.8643C40.7533 39.0041 40.6693 39.1578 40.6063 39.3116C40.5433 39.4723 40.4943 39.633 40.4593 39.8077C40.4523 39.8497 40.4523 39.8706 40.4453 39.8916C40.4383 39.9265 40.4383 39.9545 40.4383 39.9824C40.4313 40.0942 40.4313 40.248 40.4243 40.4437C40.4173 40.7302 40.4173 41.0796 40.4103 41.3731C40.4103 41.6666 40.4033 41.8902 40.4033 41.9461C40.4033 42.3584 40.7393 42.6938 41.1523 42.6938C41.5793 42.6798 41.9153 42.3444 41.9153 41.9251Z" fill="#2D2D2D"/>
<path d="M45.9611 35.7887C46.2481 35.9844 46.5141 36.208 46.7591 36.4526C47.0041 36.6972 47.2211 36.9697 47.4171 37.2632C47.6131 37.5567 47.7741 37.8642 47.9141 38.1926C48.0471 38.5211 48.1591 38.8635 48.2291 39.2199C48.2991 39.5763 48.3411 39.9467 48.3411 40.324C48.3411 40.7363 48.6771 41.0718 49.0901 41.0718C49.5031 41.0718 49.8391 40.7363 49.8391 40.324C49.8391 39.8488 49.7901 39.3806 49.6991 38.9264C49.6081 38.4722 49.4751 38.0389 49.3001 37.6196C49.1251 37.2003 48.9151 36.809 48.6701 36.4386C48.4251 36.0683 48.1451 35.7258 47.8301 35.4114C47.5221 35.0969 47.1791 34.8104 46.8151 34.5588C46.4721 34.3212 46.0031 34.4121 45.7721 34.7545C45.5341 35.0899 45.6251 35.5581 45.9611 35.7887Z" fill="#2D2D2D"/>
<path d="M37.6035 40.3249C37.6035 39.9476 37.6385 39.5772 37.7155 39.2208C37.7855 38.8644 37.8905 38.522 38.0305 38.1935C38.1635 37.8651 38.3315 37.5576 38.5275 37.2641C38.7235 36.9706 38.9405 36.7051 39.1855 36.4535C39.4305 36.2089 39.6965 35.9853 39.9835 35.7896C40.2705 35.594 40.5715 35.4262 40.8935 35.2865C41.2155 35.1467 41.5515 35.0419 41.9015 34.972C42.2515 34.9021 42.6085 34.8602 42.9795 34.8602C43.3505 34.8602 43.7145 34.8951 44.0575 34.972C44.4635 35.0559 44.8625 34.7973 44.9465 34.392C45.0305 33.9867 44.7715 33.5884 44.3655 33.5045C43.9175 33.4137 43.4555 33.3647 42.9795 33.3647C42.5035 33.3647 42.0415 33.4137 41.5935 33.5045C41.1455 33.5954 40.7115 33.7351 40.2985 33.9098C39.8855 34.0845 39.4935 34.3012 39.1295 34.5527C38.7655 34.8043 38.4225 35.0908 38.1145 35.4053C37.8065 35.7197 37.5265 36.0622 37.2745 36.4325C37.0295 36.8029 36.8125 37.2012 36.6445 37.6135C36.4695 38.0328 36.3365 38.4661 36.2455 38.9203C36.1545 39.3745 36.1055 39.8427 36.1055 40.3179C36.1055 40.7302 36.4415 41.0657 36.8545 41.0657C37.2675 41.0726 37.6035 40.7372 37.6035 40.3249Z" fill="#2D2D2D"/>
<path d="M38.6879 33.8605C39.0939 33.5809 39.5279 33.3433 39.9899 33.1407C40.4449 32.945 40.9279 32.7913 41.4249 32.6865C41.9219 32.5816 42.4399 32.5257 42.9649 32.5257C43.4969 32.5257 44.0079 32.5816 44.5119 32.6865C45.0089 32.7913 45.4919 32.945 45.9469 33.1407C46.4019 33.3364 46.8429 33.5809 47.2489 33.8605C47.6549 34.14 48.0399 34.4614 48.3829 34.8109C48.7329 35.1603 49.0479 35.5516 49.3209 35.9639C49.5939 36.3762 49.8319 36.8234 50.0279 37.2846C50.2239 37.7529 50.3709 38.242 50.4759 38.7452C50.5599 39.1505 50.9519 39.416 51.3579 39.3322C51.7639 39.2483 52.0299 38.857 51.9459 38.4517C51.8269 37.8507 51.6449 37.2637 51.4139 36.7116C51.1829 36.1596 50.8959 35.6285 50.5669 35.1323C50.2379 34.6361 49.8599 34.1749 49.4469 33.7556C49.0339 33.3364 48.5789 32.952 48.0889 32.6236C47.5989 32.2881 47.0809 32.0016 46.5279 31.764C45.9819 31.5264 45.4009 31.3447 44.8059 31.219C44.2109 31.0932 43.5879 31.0303 42.9579 31.0303C42.3279 31.0303 41.7049 31.0932 41.1099 31.219C40.5149 31.3447 39.9339 31.5264 39.3879 31.764C38.8419 32.0016 38.3169 32.2881 37.8269 32.6236C37.4839 32.8612 37.3999 33.3224 37.6309 33.6648C37.8759 34.0072 38.3449 34.0911 38.6879 33.8605Z" fill="#2D2D2D"/>
<path d="M35.2999 40.3107L34.6629 40.3177H35.3069L35.2999 40.3107L34.6629 40.3177H35.3069C35.3069 39.7796 35.3629 39.2555 35.4609 38.7454C35.5659 38.2353 35.7129 37.7461 35.9089 37.2849C36.1049 36.8167 36.3429 36.3764 36.6159 35.9641C36.8889 35.5518 37.2039 35.1605 37.5539 34.8111C37.8479 34.5176 37.8409 34.0424 37.5469 33.7489C37.2529 33.4554 36.7769 33.4624 36.4829 33.7559C36.0699 34.1752 35.6919 34.6364 35.3629 35.1325C35.0339 35.6287 34.7539 36.1528 34.5159 36.7119C34.2849 37.2639 34.1029 37.8509 33.9839 38.4519C33.8649 39.0529 33.7949 39.6818 33.7949 40.3177V40.3317C33.8019 40.744 34.1379 41.0794 34.5579 41.0724C34.9779 41.0654 35.3069 40.723 35.2999 40.3107Z" fill="#2D2D2D"/>
<path d="M51.5824 34.4204C51.9534 34.9794 52.2754 35.5804 52.5414 36.2093C52.8074 36.8383 53.0104 37.5021 53.1504 38.187C53.2904 38.8718 53.3604 39.5846 53.3604 40.3183C53.3604 40.7306 53.6964 41.0661 54.1094 41.0661C54.5224 41.0661 54.8584 40.7306 54.8584 40.3183C54.8584 39.4868 54.7744 38.6761 54.6204 37.8935C54.4594 37.1108 54.2284 36.3561 53.9274 35.6293C53.6264 34.9095 53.2624 34.2247 52.8354 33.5818C52.6044 33.2394 52.1424 33.1416 51.7924 33.3722C51.4424 33.6098 51.3514 34.078 51.5824 34.4204Z" fill="#2D2D2D"/>
<path d="M42.9648 29.7727C43.6788 29.7727 44.3788 29.8496 45.0578 29.9893C45.7298 30.1291 46.3808 30.3387 47.0038 30.6043C47.6268 30.8698 48.2148 31.1983 48.7678 31.5756C49.3208 31.953 49.8388 32.3863 50.3078 32.8615C50.6018 33.155 51.0778 33.162 51.3718 32.8684C51.6658 32.5749 51.6728 32.0998 51.3788 31.8063C50.8398 31.2612 50.2518 30.765 49.6218 30.3318C48.9918 29.8985 48.3128 29.5281 47.5988 29.2206C46.8848 28.9132 46.1358 28.6756 45.3658 28.5148C44.5888 28.3541 43.7908 28.2703 42.9648 28.2703C42.5518 28.2703 42.2158 28.6057 42.2158 29.018C42.2158 29.4373 42.5518 29.7727 42.9648 29.7727Z" fill="#2D2D2D"/>
<path d="M32.5839 40.3247C32.5839 39.5979 32.6539 38.8851 32.7939 38.1933C32.9339 37.5085 33.1369 36.8446 33.4029 36.2157C33.6689 35.5867 33.9909 34.9857 34.3619 34.4267C34.7329 33.8676 35.1599 33.3435 35.6289 32.8683C36.0979 32.3932 36.6159 31.9599 37.1689 31.5825C37.7219 31.2052 38.3099 30.8767 38.9329 30.6112C39.5559 30.3456 40.2069 30.136 40.8789 29.9962C41.2849 29.9124 41.5439 29.514 41.4599 29.1087C41.3759 28.7034 40.9769 28.4449 40.5709 28.5287C39.7939 28.6894 39.0449 28.927 38.3379 29.2345C37.6239 29.542 36.9519 29.9124 36.3149 30.3456C35.6849 30.7789 35.0969 31.2751 34.5579 31.8201C34.0189 32.3652 33.5359 32.9592 33.1089 33.6021C32.6819 34.245 32.3179 34.9298 32.0169 35.6496C31.7159 36.3694 31.4849 37.1241 31.3239 37.9138C31.1629 38.6964 31.0859 39.5071 31.0859 40.3386C31.0859 40.7509 31.4219 41.0864 31.8349 41.0864C32.2409 41.0724 32.5839 40.737 32.5839 40.3247Z" fill="#2D2D2D"/>
<path d="M53.3184 42.4222C53.3114 42.527 53.3114 42.6458 53.3044 42.7856C53.2904 43.2818 53.2694 44.0994 53.1154 45.0917C52.9614 46.077 52.6744 47.2231 52.1354 48.3481C51.9604 48.7255 52.1144 49.1727 52.4924 49.3474C52.8704 49.5221 53.3184 49.3684 53.4934 48.991C54.2004 47.5096 54.5154 46.0421 54.6694 44.8681C54.7464 44.2811 54.7814 43.7569 54.7954 43.3516C54.8024 43.149 54.8094 42.9673 54.8094 42.8275C54.8164 42.6878 54.8164 42.576 54.8164 42.5201C54.8444 42.1078 54.5294 41.7514 54.1164 41.7234C53.6964 41.6955 53.3394 42.0099 53.3184 42.4222Z" fill="#2D2D2D"/>
<path d="M50.5668 49.8295C50.6928 49.4592 50.8188 48.977 50.9448 48.5018C51.0638 48.0196 51.1828 47.5444 51.2668 47.202C51.4418 46.4892 51.5888 45.7694 51.7078 45.0427C51.8268 44.3089 51.9178 43.5682 51.9808 42.8205C52.0438 42.0727 52.0718 41.311 52.0718 40.5493H50.5668C50.5668 41.2761 50.5388 41.9889 50.4828 42.7017C50.4268 43.4075 50.3358 44.1133 50.2238 44.8051C50.1118 45.4969 49.9718 46.1748 49.8038 46.8526C49.6358 47.5235 49.4468 48.1873 49.2298 48.8372C49.0968 49.2286 49.3138 49.6548 49.7058 49.7876C50.0978 49.9204 50.5248 49.7037 50.6578 49.3124C50.8888 48.6276 51.0918 47.9288 51.2668 47.216C51.4418 46.5032 51.5888 45.7834 51.7078 45.0567C51.8268 44.3229 51.9178 43.5822 51.9808 42.8344C52.0438 42.0867 52.0718 41.325 52.0718 40.5633H50.5668C50.5668 41.2901 50.5388 42.0028 50.4828 42.7156C50.4268 43.4214 50.3358 44.1272 50.2238 44.8191C50.1118 45.5109 49.9718 46.1887 49.8038 46.8666C49.7198 47.216 49.6008 47.6912 49.4818 48.1594C49.3628 48.6276 49.2368 49.0888 49.1388 49.3823C49.0058 49.7736 49.2228 50.1999 49.6148 50.3327C50.0068 50.4305 50.4338 50.2209 50.5668 49.8295Z" fill="#2D2D2D"/>
<path d="M48.3336 40.2477C48.3336 41.0234 48.2986 41.7851 48.2216 42.5398C48.1796 42.9521 48.4876 43.3155 48.9006 43.3574C49.3136 43.3994 49.6776 43.0919 49.7196 42.6796C49.7966 41.876 49.8316 41.0653 49.8316 40.2477C49.8316 39.8354 49.4956 39.5 49.0826 39.5C48.6696 39.5 48.3336 39.8354 48.3336 40.2477Z" fill="#2D2D2D"/>
<path d="M46.5001 47.4519C46.7381 46.7112 46.9411 45.9565 47.1091 45.1808C47.2701 44.4121 47.3961 43.6225 47.4801 42.8258C47.5641 42.0292 47.6061 41.2185 47.6061 40.4009H46.9831L47.6061 40.4079V40.4009H46.9831L47.6061 40.4079L46.8571 40.4009H46.1081H46.4721H46.1081H46.4721H46.1081V40.4079C46.1081 41.1766 46.0661 41.9313 45.9891 42.6791C45.9121 43.4268 45.7931 44.1605 45.6391 44.8803C45.4851 45.6001 45.2961 46.3059 45.0721 46.9977C44.9461 47.3891 45.1631 47.8153 45.5551 47.9411C45.9471 48.0599 46.3671 47.8433 46.5001 47.4519C46.7381 46.7112 46.9411 45.9565 47.1091 45.1808C47.2701 44.4121 47.3961 43.6225 47.4801 42.8258C47.5641 42.0292 47.6061 41.2185 47.6061 40.4009H47.2421H47.6061H47.2421H47.6061V40.3939L46.1011 40.387V40.4009H46.4581H46.1011H46.4581H46.1011C46.1011 41.1696 46.0591 41.9243 45.9821 42.6721C45.9051 43.4198 45.7861 44.1536 45.6321 44.8733C45.4781 45.5931 45.2891 46.2989 45.0651 46.9907C44.9391 47.3821 45.1561 47.8083 45.5481 47.9341C45.9471 48.0599 46.3671 47.8433 46.5001 47.4519Z" fill="#2D2D2D"/>
<path d="M40.1368 44.2255C40.0458 44.5819 39.9758 44.9522 39.8988 45.2946C39.8218 45.6371 39.7378 45.9655 39.6468 46.2031C39.4158 46.7901 39.1568 47.3561 38.8628 47.9012C38.5688 48.4533 38.1418 49.1661 37.7988 49.6552C37.5608 49.9907 37.6378 50.4589 37.9808 50.7034C38.3168 50.941 38.7858 50.8642 39.0308 50.5218C39.4368 49.9487 39.8708 49.208 40.1928 48.614C40.5148 48.013 40.8088 47.3911 41.0538 46.7552C41.2008 46.3848 41.2918 45.9935 41.3758 45.6231C41.4598 45.2527 41.5298 44.8893 41.5998 44.6028C41.7048 44.2045 41.4598 43.7922 41.0608 43.6874C40.6478 43.5826 40.2348 43.8271 40.1368 44.2255Z" fill="#2D2D2D"/>
<path d="M38.1422 42.4638C38.0652 43.0439 37.9532 43.6099 37.8062 44.1689C37.6592 44.721 37.4772 45.2591 37.2602 45.7832C37.0432 46.3073 36.7982 46.8104 36.5252 47.2996C36.2522 47.7888 35.9442 48.25 35.6152 48.6972C35.3702 49.0327 35.4332 49.5009 35.7692 49.7455C36.1052 49.99 36.5742 49.9271 36.8192 49.5917C37.1902 49.0956 37.5262 48.5784 37.8342 48.0334C38.1422 47.4953 38.4152 46.9292 38.6532 46.3492C38.8912 45.7692 39.0942 45.1682 39.2552 44.5533C39.4162 43.9383 39.5422 43.3024 39.6332 42.6595C39.6892 42.2472 39.3952 41.8698 38.9892 41.8209C38.5762 41.765 38.1982 42.0515 38.1422 42.4638Z" fill="#2D2D2D"/>
<path d="M36.8191 49.5916C37.1901 49.0954 37.5261 48.5783 37.8341 48.0332C38.1421 47.4952 38.4151 46.9291 38.6531 46.3491C38.8911 45.7691 39.0941 45.1681 39.2551 44.5532C39.4161 43.9382 39.5421 43.3023 39.6331 42.6594C39.6891 42.2471 39.3951 41.8697 38.9891 41.8208C38.5761 41.7649 38.1981 42.0584 38.1491 42.4637C38.0721 43.0437 37.9601 43.6098 37.8131 44.1688C37.6661 44.7209 37.4841 45.259 37.2671 45.7831C37.0501 46.3072 36.8051 46.8103 36.5321 47.2995C36.2591 47.7887 35.9511 48.2499 35.6221 48.6971C35.3771 49.0325 35.4401 49.5007 35.7761 49.7453C36.0981 49.9899 36.5671 49.92 36.8191 49.5916Z" fill="#2D2D2D"/>
<path d="M34.6982 48.2761C35.0552 47.8568 35.3912 47.4096 35.6852 46.9344C35.9862 46.4662 36.2522 45.97 36.4832 45.4599C36.7142 44.9498 36.9172 44.4187 37.0782 43.8666C37.2392 43.3215 37.3652 42.7555 37.4492 42.1755C37.5332 41.5955 37.5752 41.0084 37.5752 40.4075H36.0702C36.0702 40.9386 36.0352 41.4557 35.9582 41.9588C35.8812 42.462 35.7762 42.9581 35.6362 43.4403C35.4962 43.9225 35.3212 44.3837 35.1182 44.831C34.9152 45.2782 34.6772 45.7115 34.4182 46.1238C34.1592 46.5361 33.8652 46.9274 33.5502 47.2978C33.2842 47.6122 33.3192 48.0874 33.6342 48.353C33.9562 48.6325 34.4322 48.5906 34.6982 48.2761C35.0552 47.8568 35.3912 47.4096 35.6852 46.9344C35.9862 46.4662 36.2522 45.97 36.4832 45.4599C36.7142 44.9498 36.9172 44.4187 37.0782 43.8666C37.2392 43.3215 37.3652 42.7555 37.4492 42.1755C37.5332 41.5955 37.5752 41.0084 37.5752 40.4075H36.0702C36.0702 40.9386 36.0352 41.4557 35.9582 41.9588C35.8812 42.462 35.7762 42.9581 35.6362 43.4403C35.4962 43.9225 35.3212 44.3837 35.1182 44.831C34.9152 45.2782 34.6772 45.7115 34.4182 46.1238C34.1592 46.5361 33.8652 46.9274 33.5502 47.2978C33.2842 47.6122 33.3192 48.0874 33.6342 48.353C33.9562 48.6325 34.4322 48.5906 34.6982 48.2761Z" fill="#2D2D2D"/>
<path d="M34.8451 43.28C34.9921 42.8258 35.1041 42.3646 35.1741 41.8824C35.2511 41.4072 35.2861 40.9111 35.2861 40.4149H34.5721L35.2791 40.4359V40.4149H34.5651L35.2721 40.4359L34.5231 40.4149H33.7741H34.3481H33.7741H34.3481H33.7741V40.4219C33.7741 40.8412 33.7391 41.2535 33.6761 41.6588C33.6131 42.0641 33.5221 42.4554 33.3961 42.8328C33.2701 43.2241 33.4871 43.6504 33.8861 43.7762C34.2991 43.895 34.7191 43.6784 34.8451 43.28C34.9921 42.8258 35.1041 42.3646 35.1741 41.8824C35.2511 41.4072 35.2861 40.9111 35.2861 40.4149H34.7121H35.2861H34.7121H35.2861V40.4079L33.7811 40.387V40.4079V40.4149H34.2921H33.7811H34.2921H33.7811C33.7811 40.8342 33.7461 41.2465 33.6831 41.6518C33.6201 42.0571 33.5291 42.4485 33.4031 42.8258C33.2771 43.2171 33.4941 43.6434 33.8931 43.7692C34.2991 43.895 34.7191 43.6784 34.8451 43.28Z" fill="#2D2D2D"/>
<path d="M31.8695 43.4543C32.0165 43.1468 32.1425 42.8254 32.2475 42.4969C32.3525 42.1685 32.4295 41.8261 32.4785 41.4767C32.5345 41.1272 32.5625 40.7709 32.5625 40.4075H31.0575C31.0575 40.694 31.0365 40.9735 30.9945 41.253C30.9525 41.5256 30.8895 41.7911 30.8125 42.0497C30.7355 42.3082 30.6305 42.5598 30.5185 42.7974C30.3365 43.1678 30.4975 43.622 30.8685 43.7967C31.2395 43.9854 31.6945 43.8247 31.8695 43.4543C32.0165 43.1468 32.1425 42.8254 32.2475 42.4969C32.3525 42.1685 32.4295 41.8261 32.4785 41.4767C32.5345 41.1272 32.5625 40.7709 32.5625 40.4075H31.0575C31.0575 40.694 31.0365 40.9735 30.9945 41.253C30.9525 41.5256 30.8895 41.7911 30.8125 42.0497C30.7355 42.3082 30.6305 42.5598 30.5185 42.7974C30.3365 43.1678 30.4975 43.622 30.8685 43.7967C31.2395 43.9854 31.6945 43.8247 31.8695 43.4543Z" fill="#2D2D2D"/>
<path d="M32.8152 44.1813L33.2072 44.4119L32.8152 44.1813L33.2072 44.4119L32.8152 44.1813C32.7872 44.2302 32.5142 44.6705 31.8842 45.4112C31.6182 45.7257 31.6532 46.2009 31.9682 46.4664C32.2832 46.732 32.7592 46.6971 33.0252 46.3826C33.7812 45.4951 34.0892 44.971 34.1172 44.9291C34.3272 44.5727 34.2012 44.1114 33.8442 43.9018C33.4802 43.6991 33.0252 43.8249 32.8152 44.1813Z" fill="#2D2D2D"/>
<path d="M39.7589 40.6321L39.3459 40.6601L39.7589 40.6321L39.3459 40.6601L39.7589 40.6321C39.7589 40.6321 39.7589 40.6251 39.7589 40.6112C39.7589 40.5902 39.7589 40.5692 39.7589 40.5343C39.7589 40.3386 39.7799 39.8914 39.9269 39.4372C39.9969 39.2135 40.0949 38.9829 40.2279 38.7803C40.3609 38.5776 40.5289 38.3889 40.7459 38.2422C41.0819 38.0046 41.1659 37.5364 40.9209 37.194C40.6829 36.8585 40.2139 36.7747 39.8709 37.0193C39.4859 37.2918 39.1919 37.6272 38.9679 37.9697C38.6319 38.4868 38.4639 39.0179 38.3659 39.4791C38.2749 39.9403 38.2539 40.3177 38.2539 40.5483C38.2539 40.6671 38.2609 40.7439 38.2609 40.7579C38.2889 41.1702 38.6459 41.4847 39.0659 41.4567C39.4719 41.4078 39.7869 41.0444 39.7589 40.6321Z" fill="#2D2D2D"/>
<path d="M47.837 44.4968L47.907 44.5038L47.837 44.4968L47.907 44.5038L47.837 44.4968C47.837 44.5387 47.585 47.4248 46.136 50.7582C45.968 51.1355 46.15 51.5828 46.528 51.7435C46.906 51.9112 47.354 51.7295 47.515 51.3522C49.083 47.7253 49.328 44.6645 49.335 44.6086C49.37 44.1963 49.062 43.8329 48.642 43.805C48.229 43.777 47.865 44.0845 47.837 44.4968Z" fill="#2D2D2D"/>
<path d="M44.5954 48.7398C44.5954 48.7398 44.5954 48.7468 44.5884 48.7678C44.5394 48.9075 44.3224 49.5434 44.0844 50.1584C43.9654 50.4659 43.8394 50.7664 43.7414 50.983C43.6924 51.0948 43.6434 51.1787 43.6154 51.2276L43.6014 51.2555V51.2625L43.8254 51.4302L43.6224 51.2416L43.6014 51.2695L43.8254 51.4372L43.6224 51.2485L44.0354 51.6329L43.7204 51.1717C43.6644 51.2066 43.6434 51.2346 43.6224 51.2485L44.0354 51.6329L43.7204 51.1717C43.3774 51.4023 43.2864 51.8705 43.5174 52.2129C43.7484 52.5553 44.2174 52.6462 44.5604 52.4156C44.6304 52.3666 44.6724 52.3247 44.7074 52.2898C44.7774 52.2129 44.8194 52.157 44.8614 52.0941C44.9314 51.9823 44.9944 51.8705 45.0574 51.7447C45.1624 51.5211 45.2744 51.2625 45.3864 50.997C45.7154 50.1864 46.0304 49.2639 46.0304 49.2569C46.1634 48.8656 45.9534 48.4393 45.5614 48.3066C45.1554 48.1388 44.7284 48.3485 44.5954 48.7398Z" fill="#2D2D2D"/>
<path d="M42.3975 40.5214L42.7545 40.4306L42.3975 40.5214L42.7545 40.4306L42.3975 40.5214C42.4045 40.5424 42.4605 40.8149 42.4605 41.346C42.4605 42.7017 42.0895 45.7695 39.4995 50.7101C39.3385 51.0176 39.4575 51.395 39.7655 51.5557C40.0735 51.7164 40.4515 51.5976 40.6125 51.2902C43.2795 46.2028 43.7205 42.9324 43.7205 41.346C43.7205 40.6402 43.6365 40.2699 43.6225 40.221C43.5385 39.8855 43.2025 39.6829 42.8665 39.7667C42.5165 39.8506 42.3135 40.193 42.3975 40.5214Z" fill="#2D2D2D"/>
<path d="M43.3428 68.9766C47.0108 69.1583 50.0208 66.1534 49.8388 62.4916C49.6778 59.3539 47.1298 56.8102 43.9868 56.6495C40.3188 56.4608 37.3018 59.4727 37.4908 63.1415C37.6518 66.2722 40.2068 68.8158 43.3428 68.9766Z" fill="#F5FAFD"/>
<path d="M52.7017 82.2748C53.9897 82.2748 54.9487 81.1008 54.6967 79.836C53.6257 74.4831 49.2437 69.6892 44.0077 69.6892C38.7717 69.6892 34.3897 74.4831 33.3187 79.836C33.0667 81.0938 34.0257 82.2748 35.3137 82.2748H52.7017Z" fill="#F5FAFD"/>
<path d="M43.3426 68.9755L43.3006 69.849C43.4196 69.856 43.5456 69.856 43.6646 69.856C45.6105 69.856 47.3815 69.0664 48.6555 67.7875C49.9295 66.5157 50.7275 64.7477 50.7205 62.805C50.7205 62.6862 50.7205 62.5604 50.7135 62.4416C50.6225 60.6457 49.8455 59.0244 48.6485 57.8295C47.4515 56.6345 45.8275 55.8588 44.0286 55.768C43.9096 55.761 43.7836 55.761 43.6646 55.761C41.7186 55.761 39.9476 56.5506 38.6736 57.8295C37.3996 59.1013 36.6016 60.8693 36.6016 62.812C36.6016 62.9378 36.6016 63.0566 36.6086 63.1824C36.6996 64.9783 37.4766 66.5996 38.6736 67.7945C39.8706 68.9895 41.5016 69.7652 43.2936 69.856L43.3426 68.9755L43.3846 68.102C42.0406 68.0321 40.8226 67.4591 39.9126 66.5576C39.0096 65.6562 38.4286 64.4402 38.3586 63.0985C38.3516 63.0077 38.3516 62.9098 38.3516 62.819C38.3516 61.3515 38.9466 60.0377 39.9056 59.0734C40.8716 58.116 42.1876 57.522 43.6576 57.522C43.7485 57.522 43.8396 57.522 43.9376 57.529C45.2815 57.5989 46.4995 58.1719 47.4025 59.0803C48.3055 59.9818 48.8865 61.1977 48.9565 62.5395C48.9635 62.6303 48.9635 62.7281 48.9635 62.819C48.9635 64.2865 48.3685 65.6003 47.4095 66.5646C46.4435 67.522 45.1275 68.116 43.6576 68.116C43.5666 68.116 43.4756 68.116 43.3846 68.109L43.3426 68.9755Z" fill="#4478BC"/>
<path d="M52.7024 82.2752V83.1557C53.1084 83.1557 53.5004 83.0718 53.8504 82.9181C54.3754 82.6945 54.8164 82.3171 55.1244 81.8559C55.4324 81.3947 55.6144 80.8356 55.6144 80.2486C55.6144 80.06 55.5934 79.8643 55.5584 79.6686C54.9844 76.8175 53.5494 74.134 51.5334 72.1354C50.5254 71.1361 49.3704 70.3115 48.1034 69.7245C46.8364 69.1445 45.4504 68.8091 44.0084 68.8091C42.5664 68.8091 41.1804 69.1375 39.9134 69.7245C38.0093 70.598 36.3643 72.0236 35.0833 73.7497C33.8023 75.4827 32.8853 77.5233 32.4583 79.6616C32.4163 79.8573 32.4023 80.046 32.4023 80.2416C32.4023 81.0243 32.7173 81.7511 33.2423 82.2822C33.5013 82.5477 33.8163 82.7644 34.1663 82.9181C34.5163 83.0718 34.9083 83.1557 35.3143 83.1557H52.7094V82.2752V81.3947H35.3073C35.1393 81.3947 34.9923 81.3597 34.8523 81.3038C34.6493 81.213 34.4673 81.0662 34.3483 80.8776C34.2223 80.6889 34.1523 80.4723 34.1523 80.2416C34.1523 80.1648 34.1593 80.0879 34.1733 80.011C34.6703 77.5093 35.9583 75.1124 37.7153 73.3793C38.5904 72.5128 39.5774 71.807 40.6414 71.3248C41.6984 70.8426 42.8324 70.5701 44.0014 70.5701C45.1774 70.5701 46.3044 70.8356 47.3684 71.3248C48.9574 72.0516 50.3924 73.2745 51.5124 74.7979C52.6394 76.3213 53.4514 78.1382 53.8294 80.011C53.8434 80.0879 53.8504 80.1718 53.8504 80.2416C53.8504 80.5491 53.7244 80.8426 53.5144 81.0523C53.4094 81.1571 53.2834 81.2409 53.1504 81.3038C53.0104 81.3597 52.8634 81.3947 52.6954 81.3947V82.2752H52.7024Z" fill="#4478BC"/>
<path d="M41.6768 81.4503L43.2308 74.6649L41.8098 71.646H46.0728L44.5258 74.6649L46.3318 81.4503H41.6768Z" fill="#F26522"/>
</svg>
