<svg width="100" height="100" viewBox="0 0 100 100" fill="none" xmlns="http://www.w3.org/2000/svg">
<g clip-path="url(#clip0)">
<path d="M84.1737 54.3455H44.168V61.4126H84.1737V54.3455Z" fill="#F26522"/>
<path d="M59.9088 64.9462H51.5508V66.1674H59.9088V64.9462Z" fill="#4478BC"/>
<path d="M59.9088 67.9314H51.5508V69.2883H59.9088V67.9314Z" fill="#4478BC"/>
<path d="M59.9088 71.0579H51.5508V72.2791H59.9088V71.0579Z" fill="#4478BC"/>
<path d="M84.2472 74.6763H83.4946C83.4946 75.072 83.4262 75.4678 83.2951 75.8353C83.1013 76.3893 82.7763 76.8756 82.3886 77.2035C82.1948 77.3674 81.9838 77.4975 81.7672 77.5823C81.5505 77.6671 81.3225 77.7123 81.0773 77.7123H47.5995C47.2746 77.7123 46.9553 77.6275 46.6474 77.4749C46.1913 77.2431 45.7637 76.836 45.4616 76.3328C45.1594 75.8296 44.9827 75.2416 44.9827 74.6706V51.6092C44.9827 51.2247 45.0568 50.8798 45.1936 50.5745C45.3932 50.1109 45.7238 49.7321 46.14 49.4664C46.5562 49.2007 47.0579 49.048 47.5938 49.048H81.0659C81.4251 49.048 81.7501 49.1159 82.0408 49.2346C82.4741 49.4155 82.8276 49.7152 83.0785 50.1166C83.3293 50.518 83.4832 51.0212 83.4889 51.6148V74.6763H84.2472H84.9998V51.6092C84.9998 50.4728 84.595 49.4494 83.888 48.7145C83.5346 48.347 83.107 48.053 82.628 47.8551C82.1491 47.6572 81.6246 47.5498 81.0716 47.5498H47.5995C46.4935 47.5498 45.4616 47.9738 44.709 48.6919C44.3327 49.0537 44.0249 49.489 43.8082 49.9809C43.5973 50.4728 43.4775 51.0268 43.4775 51.6035V74.665C43.4775 75.2473 43.5916 75.8127 43.7968 76.3385C44.1047 77.1243 44.6064 77.8254 45.2563 78.3455C45.5813 78.6056 45.9462 78.8204 46.3396 78.9674C46.733 79.1144 47.1548 79.1992 47.5995 79.1992H81.0716C81.6588 79.1992 82.2119 79.0466 82.6965 78.7865C83.4205 78.3964 83.9907 77.7802 84.384 77.0621C84.7774 76.3441 84.9998 75.513 84.9998 74.6593H84.2472V74.6763Z" fill="#3D4451"/>
<path d="M84.2472 74.6763H83.4946C83.4946 75.072 83.4262 75.4678 83.2951 75.8353C83.1013 76.3893 82.7763 76.8756 82.3886 77.2035C82.1948 77.3674 81.9838 77.4975 81.7672 77.5823C81.5505 77.6671 81.3225 77.7123 81.0773 77.7123H47.5995C47.2746 77.7123 46.9553 77.6275 46.6474 77.4749C46.1913 77.2431 45.7637 76.836 45.4616 76.3328C45.1594 75.8296 44.9827 75.2416 44.9827 74.6706V51.6092C44.9827 51.2247 45.0568 50.8798 45.1936 50.5745C45.3932 50.1109 45.7238 49.7321 46.14 49.4664C46.5562 49.2007 47.0579 49.048 47.5938 49.048H81.0659C81.4251 49.048 81.7501 49.1159 82.0408 49.2346C82.4741 49.4155 82.8276 49.7152 83.0785 50.1166C83.3293 50.518 83.4832 51.0212 83.4889 51.6148V74.6763H84.2472H84.9998V51.6092C84.9998 50.4728 84.595 49.4494 83.888 48.7145C83.5346 48.347 83.107 48.053 82.628 47.8551C82.1491 47.6572 81.6246 47.5498 81.0716 47.5498H47.5995C46.4935 47.5498 45.4616 47.9738 44.709 48.6919C44.3327 49.0537 44.0249 49.489 43.8082 49.9809C43.5973 50.4728 43.4775 51.0268 43.4775 51.6035V74.665C43.4775 75.2473 43.5916 75.8127 43.7968 76.3385C44.1047 77.1243 44.6064 77.8254 45.2563 78.3455C45.5813 78.6056 45.9462 78.8204 46.3396 78.9674C46.733 79.1144 47.1548 79.1992 47.5995 79.1992H81.0716C81.6588 79.1992 82.2119 79.0466 82.6965 78.7865C83.4205 78.3964 83.9907 77.7802 84.384 77.0621C84.7774 76.3441 84.9998 75.513 84.9998 74.6593H84.2472V74.6763Z" fill="#4478BC"/>
<path d="M78.4041 72.6183H72.013C71.1464 72.6183 70.4395 71.9172 70.4395 71.0579V66.8572C70.4395 65.9978 71.1464 65.2968 72.013 65.2968H78.4041C79.2707 65.2968 79.9777 65.9978 79.9777 66.8572V71.0579C79.9777 71.9172 79.2707 72.6183 78.4041 72.6183Z" fill="#F26522"/>
<path d="M78.4032 72.6183V72.166H72.0121C71.7042 72.166 71.4248 72.0416 71.2196 71.8438C71.0143 71.6402 70.8946 71.3689 70.8946 71.0579V66.8572C70.8946 66.5519 71.02 66.2749 71.2196 66.0713C71.4248 65.8678 71.6985 65.7491 72.0121 65.7491H78.4032C78.711 65.7491 78.9904 65.8735 79.1957 66.0713C79.4009 66.2749 79.5206 66.5462 79.5206 66.8572V71.0579C79.5206 71.3632 79.3952 71.6402 79.1957 71.8438C78.9904 72.0473 78.7167 72.166 78.4032 72.166V72.6183V73.0706C78.9619 73.0706 79.475 72.8445 79.8399 72.4826C80.2048 72.1208 80.4328 71.612 80.4328 71.0579V66.8572C80.4328 66.3031 80.2048 65.7943 79.8399 65.4325C79.475 65.0706 78.9619 64.8445 78.4032 64.8445H72.0121C71.4533 64.8445 70.9402 65.0706 70.5754 65.4325C70.2105 65.7943 69.9824 66.3031 69.9824 66.8572V71.0579C69.9824 71.612 70.2105 72.1208 70.5754 72.4826C70.9402 72.8445 71.4533 73.0706 72.0121 73.0706H78.4032V72.6183Z" fill="white"/>
<path d="M70.8154 68.1122L74.3103 68.1801L76.0036 70.6281H79.8975V69.8649H76.4084L74.7208 67.4282L70.8325 67.349L70.8154 68.1122Z" fill="white"/>
<path d="M74.9775 68.819H79.8692V68.0105H74.9775" fill="white"/>
<path d="M34.0766 48.754C40.6787 49.0819 46.0949 43.7053 45.7585 37.1583C45.4734 31.5555 40.8782 26.9986 35.2283 26.7159C28.6262 26.3823 23.1986 31.7646 23.5407 38.3116C23.8315 43.9201 28.4267 48.477 34.0766 48.754Z" fill="#F5FAFD"/>
<path d="M50.9068 72.5279C53.2215 72.5279 54.9433 70.4247 54.4929 68.1745C52.5658 58.6028 44.6867 50.0431 35.2568 50.0431C25.8327 50.0431 17.9592 58.6028 16.0265 68.1745C15.5704 70.4247 17.2979 72.5279 19.6126 72.5279H50.9068Z" fill="#F5FAFD"/>
<path d="M34.0763 48.754L34.0307 49.6982C34.2416 49.7095 34.4468 49.7151 34.6521 49.7151C37.9873 49.7151 41.009 48.3752 43.1926 46.2042C45.3761 44.0388 46.733 41.0367 46.733 37.735C46.733 37.5314 46.7273 37.3222 46.7159 37.113C46.562 34.0657 45.2336 31.3067 43.1812 29.2714C41.1344 27.2417 38.3465 25.9244 35.2735 25.7717C35.0626 25.7604 34.8573 25.7548 34.6464 25.7548C31.3112 25.7548 28.2895 27.0947 26.1059 29.2657C23.9223 31.4311 22.5654 34.4332 22.5654 37.735C22.5654 37.9441 22.5711 38.1533 22.5825 38.3625C22.7422 41.4099 24.0706 44.1689 26.1173 46.1985C28.1698 48.2282 30.952 49.5455 34.0249 49.6982L34.0763 48.754L34.1219 47.8098C31.5449 47.6798 29.2017 46.5773 27.4685 44.8643C25.7353 43.1455 24.6236 40.8275 24.4925 38.2721C24.4811 38.0911 24.4811 37.9159 24.4811 37.7406C24.4811 34.9533 25.6156 32.4374 27.4571 30.6113C29.2986 28.7851 31.8357 27.6601 34.6464 27.6601C34.8231 27.6601 34.9999 27.6657 35.1766 27.6714C37.7536 27.8014 40.0968 28.9039 41.8243 30.6226C43.5574 32.3413 44.6692 34.6593 44.8003 37.2148C44.8117 37.3901 44.8117 37.5653 44.8117 37.7406C44.8117 40.5279 43.6772 43.0438 41.8357 44.8699C39.9942 46.6961 37.4571 47.8212 34.6464 47.8212C34.4696 47.8212 34.2986 47.8155 34.1219 47.8098L34.0763 48.754Z" fill="#4478BC"/>
<path d="M50.9065 72.5278V73.4776C51.5507 73.4776 52.1722 73.3476 52.7252 73.1102C53.5576 72.754 54.2588 72.166 54.7491 71.4367C55.2395 70.7073 55.5245 69.831 55.5245 68.9038C55.5245 68.6042 55.496 68.2989 55.4333 67.9936C54.4299 63.0183 51.8985 58.3314 48.3637 54.8487C46.5964 53.1074 44.5781 51.6713 42.3717 50.6706C40.1653 49.6642 37.7651 49.0989 35.2623 49.0989C32.7594 49.0989 30.3592 49.6699 28.1528 50.6706C24.8404 52.1801 21.9555 54.6508 19.7092 57.6699C17.4572 60.689 15.8438 64.2565 15.0912 67.9879C15.0285 68.2932 15 68.5985 15 68.8981C15 70.1363 15.5017 71.2784 16.3284 72.1094C16.7389 72.5278 17.2349 72.867 17.7936 73.1045C18.3523 73.342 18.9681 73.472 19.6123 73.472H50.9065V72.5278V71.578H19.6123C19.2246 71.578 18.8712 71.4988 18.5462 71.3632C18.0616 71.1596 17.6511 70.8091 17.3603 70.3794C17.0696 69.9497 16.9042 69.4352 16.9042 68.8925C16.9042 68.7172 16.9213 68.5363 16.9612 68.3554C17.8848 63.7589 20.2566 59.383 23.5006 56.1886C25.1254 54.5886 26.9612 53.2883 28.9453 52.3893C30.9293 51.4904 33.0502 50.9872 35.2566 50.9872C37.4686 50.9872 39.5895 51.4904 41.5678 52.3893C44.5382 53.7406 47.195 55.9964 49.2702 58.795C51.3512 61.5879 52.8563 64.9123 53.5462 68.361C53.5804 68.542 53.6032 68.7229 53.6032 68.8981C53.6032 69.6218 53.3067 70.289 52.8221 70.7808C52.577 71.0239 52.2862 71.2275 51.9669 71.3632C51.642 71.4988 51.2885 71.578 50.9008 71.578V72.5278H50.9065Z" fill="#4478BC"/>
<path d="M31.0771 71.9568L33.8651 59.202L31.3052 53.537H38.9905L36.1969 59.202L39.4523 71.9568H31.0771Z" fill="#F26522"/>
<path d="M63.4947 42.0487C62.7707 42.0487 62.0751 41.7264 61.5905 41.3081L52.2347 33.1328C51.294 32.3187 51.391 31.0466 52.44 30.3173C53.489 29.5879 55.1025 29.6501 56.0432 30.4643L63.3636 36.8303L78.5859 21.7576C79.4525 20.8982 81.0603 20.7456 82.1663 21.4183C83.2724 22.0968 83.4719 23.335 82.5996 24.1943L65.4959 41.2063C65.0284 41.6699 64.3271 42.0487 63.5688 42.0487C63.546 42.0487 63.5175 42.0487 63.4947 42.0487Z" fill="#62BC4A"/>
</g>
<defs>
<clipPath id="clip0">
<rect width="70" height="58.2105" fill="white" transform="translate(15 21)"/>
</clipPath>
</defs>
</svg>
