<svg width="100" height="100" viewBox="0 0 100 100" fill="none" xmlns="http://www.w3.org/2000/svg">
<g clip-path="url(#clip0)">
<path d="M51.5247 74.9948C76.1399 74.9948 96.0944 74.7333 96.0944 74.4108C96.0944 74.0883 76.1399 73.8268 51.5247 73.8268C26.9096 73.8268 6.95508 74.0883 6.95508 74.4108C6.95508 74.7333 26.9096 74.9948 51.5247 74.9948Z" fill="#4378BD"/>
<path d="M58.963 65.1127C58.3636 65.1127 57.877 64.626 57.877 64.0266V35.2664C57.877 34.667 58.3636 34.1803 58.963 34.1803C59.5624 34.1803 60.0491 34.667 60.0491 35.2664V64.0266C60.0491 64.626 59.5624 65.1127 58.963 65.1127Z" fill="#F26522"/>
<path d="M34.1427 74.2418C29.4296 74.2418 25.5977 70.4098 25.5977 65.6967C25.5977 60.9836 29.4296 57.1516 34.1427 57.1516C38.8559 57.1516 42.6878 60.9836 42.6878 65.6967C42.6878 70.4098 38.8507 74.2418 34.1427 74.2418ZM34.1427 59.3289C30.6284 59.3289 27.7749 62.1875 27.7749 65.6967C27.7749 69.211 30.6335 72.0645 34.1427 72.0645C37.6571 72.0645 40.5106 69.2059 40.5106 65.6967C40.5106 62.1824 37.652 59.3289 34.1427 59.3289Z" fill="#F26522"/>
<path d="M34.1426 69.7182C31.9244 69.7182 30.1211 67.9149 30.1211 65.6967C30.1211 63.4785 31.9244 61.6752 34.1426 61.6752C36.3608 61.6752 38.1641 63.4785 38.1641 65.6967C38.159 67.9149 36.3557 69.7182 34.1426 69.7182ZM34.1426 63.8524C33.1283 63.8524 32.2983 64.6823 32.2983 65.6967C32.2983 66.711 33.1283 67.541 34.1426 67.541C35.1621 67.541 35.9869 66.711 35.9869 65.6967C35.9869 64.6823 35.157 63.8524 34.1426 63.8524Z" fill="#4478BC"/>
<path d="M70.5869 69.7182C68.3687 69.7182 66.5654 67.9149 66.5654 65.6967C66.5654 63.4785 68.3687 61.6752 70.5869 61.6752C72.8052 61.6752 74.6085 63.4785 74.6085 65.6967C74.6033 67.9149 72.8001 69.7182 70.5869 69.7182ZM70.5869 63.8524C69.5726 63.8524 68.7427 64.6823 68.7427 65.6967C68.7427 66.711 69.5726 67.541 70.5869 67.541C71.6013 67.541 72.4312 66.711 72.4312 65.6967C72.4312 64.6823 71.6013 63.8524 70.5869 63.8524Z" fill="#4478BC"/>
<path d="M70.5871 74.2418C65.874 74.2418 62.042 70.4098 62.042 65.6967C62.042 60.9836 65.874 57.1516 70.5871 57.1516C75.3002 57.1516 79.1322 60.9836 79.1322 65.6967C79.1322 70.4098 75.3002 74.2418 70.5871 74.2418ZM70.5871 59.3289C67.0727 59.3289 64.2192 62.1875 64.2192 65.6967C64.2192 69.211 67.0778 72.0645 70.5871 72.0645C74.0963 72.0645 76.9549 69.2059 76.9549 65.6967C76.9549 62.1824 74.0963 59.3289 70.5871 59.3289Z" fill="#F26522"/>
<path d="M82.7084 65.1127H77.8416C77.3344 65.1127 76.8939 64.7643 76.7812 64.2674C76.1152 61.3576 73.5639 59.3238 70.5875 59.3238C67.6111 59.3238 65.0598 61.3576 64.3939 64.2674C64.2812 64.7592 63.8406 65.1127 63.3334 65.1127H41.3969C40.8898 65.1127 40.4492 64.7643 40.3365 64.2674C39.6654 61.3576 37.1193 59.3238 34.1428 59.3238C31.1664 59.3238 28.6152 61.3576 27.9492 64.2674C27.8365 64.7643 27.3959 65.1127 26.8887 65.1127H17.4318C16.8324 65.1127 16.3457 64.626 16.3457 64.0266V48.0891C16.3457 47.4898 16.8324 47.0031 17.4318 47.0031C18.0312 47.0031 18.5178 47.4898 18.5178 48.0891V62.9355H26.0588C27.2217 59.4877 30.4287 57.1465 34.1326 57.1465C37.8365 57.1465 41.0435 59.4877 42.2115 62.9355H62.5035C63.6715 59.4877 66.8785 57.1465 70.5824 57.1465C74.2863 57.1465 77.4932 59.4877 78.6562 62.9355H81.6172V49.1496L74.6603 36.3576H58.9584C58.359 36.3576 57.8723 35.8709 57.8723 35.2715V27.1773H52.8262C52.2269 27.1773 51.7402 26.6906 51.7402 26.0912C51.7402 25.4918 52.2269 25 52.8262 25H58.9635C59.5629 25 60.0496 25.4867 60.0496 26.0861V34.1752H75.3109C75.7105 34.1752 76.0742 34.3955 76.2689 34.7439L83.6664 48.3453C83.7535 48.5041 83.7996 48.6834 83.7996 48.8678V64.0215C83.7996 64.626 83.3078 65.1127 82.7084 65.1127Z" fill="#F26522"/>
<path d="M82.7076 49.959H65.4074C64.808 49.959 64.3213 49.4724 64.3213 48.873V38.8832C64.3213 38.2838 64.808 37.7972 65.4074 37.7972C66.0067 37.7972 66.4934 38.2838 66.4934 38.8832V47.7869H80.8735L76.2936 39.3699C76.0067 38.8422 76.2014 38.1814 76.7291 37.8945C77.2567 37.6076 77.9176 37.8023 78.2045 38.3299L83.6604 48.3556C83.8449 48.6937 83.8346 49.1035 83.6399 49.4314C83.4453 49.7541 83.0918 49.959 82.7076 49.959Z" fill="#F26522"/>
<path d="M20.6998 43.3914H18.5226C17.9232 43.3914 17.4365 42.9047 17.4365 42.3053C17.4365 41.7059 17.9232 41.2192 18.5226 41.2192H20.6998C21.2992 41.2192 21.7859 41.7059 21.7859 42.3053C21.7859 42.9047 21.2992 43.3914 20.6998 43.3914Z" fill="#F26522"/>
<path d="M14.4347 43.3914H10.3517C9.75231 43.3914 9.26562 42.9047 9.26562 42.3053C9.26562 41.7059 9.75231 41.2192 10.3517 41.2192H14.4347C15.0341 41.2192 15.5207 41.7059 15.5207 42.3053C15.5259 42.9047 15.0392 43.3914 14.4347 43.3914Z" fill="#F26522"/>
<path d="M6.26332 43.3914H4.08607C3.48668 43.3914 3 42.9047 3 42.3053C3 41.7059 3.48668 41.2192 4.08607 41.2192H6.26332C6.8627 41.2192 7.34938 41.7059 7.34938 42.3053C7.35451 42.9047 6.86783 43.3914 6.26332 43.3914Z" fill="#F26522"/>
<path d="M18.5895 35.2869H16.4122C15.8129 35.2869 15.3262 34.8002 15.3262 34.2008C15.3262 33.6014 15.8129 33.1147 16.4122 33.1147H18.5895C19.1889 33.1147 19.6756 33.6014 19.6756 34.2008C19.6756 34.8002 19.194 35.2869 18.5895 35.2869Z" fill="#F26522"/>
<path d="M13.0307 35.2869H9.64954C9.05016 35.2869 8.56348 34.8002 8.56348 34.2008C8.56348 33.6014 9.05016 33.1147 9.64954 33.1147H13.0307C13.6301 33.1147 14.1168 33.6014 14.1168 34.2008C14.1168 34.8002 13.6301 35.2869 13.0307 35.2869Z" fill="#F26522"/>
<path d="M6.26332 35.2869H4.08607C3.48668 35.2869 3 34.7951 3 34.1957C3 33.5963 3.48668 33.1096 4.08607 33.1096H6.26332C6.86271 33.1096 7.34939 33.5963 7.34939 34.1957C7.34939 34.7951 6.86783 35.2869 6.26332 35.2869Z" fill="#F26522"/>
<path d="M22.7487 27.1773H20.5714C19.972 27.1773 19.4854 26.6906 19.4854 26.0912C19.4854 25.4918 19.972 25 20.5714 25H22.7487C23.3481 25 23.8347 25.4867 23.8347 26.0861C23.8347 26.6855 23.3481 27.1773 22.7487 27.1773Z" fill="#F26522"/>
<path d="M15.8018 27.1773H11.0324C10.433 27.1773 9.94629 26.6906 9.94629 26.0912C9.94629 25.4918 10.433 25 11.0324 25H15.8018C16.4012 25 16.8879 25.4867 16.8879 26.0861C16.8879 26.6855 16.4063 27.1773 15.8018 27.1773Z" fill="#F26522"/>
<path d="M6.26332 27.1773H4.08607C3.48668 27.1773 3 26.6906 3 26.0861C3 25.4816 3.48668 25 4.08607 25H6.26332C6.86783 25 7.35451 25.4867 7.35451 26.0861C7.35451 26.6855 6.86783 27.1773 6.26332 27.1773Z" fill="#F26522"/>
<path d="M58.9635 59.3289H17.4318C16.8324 59.3289 16.3457 58.8422 16.3457 58.2428C16.3457 57.6434 16.8324 57.1567 17.4318 57.1567H58.9584C59.5578 57.1567 60.0445 57.6434 60.0445 58.2428C60.0496 58.8371 59.5629 59.3289 58.9635 59.3289Z" fill="#F26522"/>
<path d="M51.7652 54.0984C50.7662 54.0984 49.9619 53.6118 49.9619 53.0124V32.2695C49.9619 31.6702 50.7713 31.1835 51.7652 31.1835C52.7642 31.1835 53.5685 31.6702 53.5685 32.2695V53.0124C53.5736 53.6118 52.7642 54.0984 51.7652 54.0984Z" fill="#F26522"/>
<path d="M39.3214 43.3914H25.5714C24.972 43.3914 24.4854 42.9047 24.4854 42.3053C24.4854 41.7059 24.972 41.2193 25.5714 41.2193H39.3214C43.1944 41.2193 46.3399 38.0686 46.3399 34.2008C46.3399 30.3279 43.1892 27.1824 39.3214 27.1824H28.8399C28.2405 27.1824 27.7538 26.6957 27.7538 26.0963C27.7538 25.4969 28.2354 25 28.8399 25H39.3214C44.3931 25 48.5171 29.124 48.5171 34.1957C48.5171 39.2674 44.3931 43.3914 39.3214 43.3914Z" fill="#F26522"/>
<path d="M40.6022 37.0287C40.2692 37.0287 39.9362 36.875 39.721 36.583L38.4454 34.836C38.3071 34.6516 38.2354 34.4262 38.2354 34.1905V32.9252C38.2354 32.3258 38.722 31.8391 39.3214 31.8391C39.9208 31.8391 40.4075 32.3258 40.4075 32.9252V33.8371L41.4782 35.2971C41.8317 35.7838 41.7292 36.4651 41.2425 36.8186C41.0479 36.9621 40.8224 37.0287 40.6022 37.0287Z" fill="#4378BD"/>
<path d="M39.3214 30.958C38.722 30.958 38.2354 30.4713 38.2354 29.8719V28.5399C38.2354 27.9405 38.722 27.4539 39.3214 27.4539C39.9208 27.4539 40.4075 27.9405 40.4075 28.5399V29.8668C40.4126 30.4713 39.9259 30.958 39.3214 30.958Z" fill="#4378BD"/>
<path d="M44.9774 35.2869H43.6505C43.0511 35.2869 42.5645 34.8002 42.5645 34.2008C42.5645 33.6014 43.0511 33.1147 43.6505 33.1147H44.9774C45.5767 33.1147 46.0634 33.6014 46.0634 34.2008C46.0634 34.8002 45.5767 35.2869 44.9774 35.2869Z" fill="#4378BD"/>
<path d="M39.3214 40.9375C38.722 40.9375 38.2354 40.4508 38.2354 39.8514V38.5245C38.2354 37.9252 38.722 37.4385 39.3214 37.4385C39.9208 37.4385 40.4075 37.9252 40.4075 38.5245V39.8514C40.4126 40.4508 39.9259 40.9375 39.3214 40.9375Z" fill="#4378BD"/>
<path d="M34.9979 35.2869H33.671C33.0716 35.2869 32.585 34.8002 32.585 34.2008C32.585 33.6014 33.0716 33.1147 33.671 33.1147H34.9979C35.5973 33.1147 36.0839 33.6014 36.0839 34.2008C36.0839 34.8002 35.5973 35.2869 34.9979 35.2869Z" fill="#4378BD"/>
<path d="M54.3267 52.5616C53.3277 52.5616 52.5234 52.0749 52.5234 51.4755V30.7327C52.5234 30.1333 53.3329 29.6466 54.3267 29.6466C55.3257 29.6466 56.13 30.1333 56.13 30.7327V51.4755C56.1351 52.0749 55.3257 52.5616 54.3267 52.5616Z" fill="#4478BC"/>
<path d="M78.1641 38.3298H66.8936V47.5511H78.1641V38.3298Z" fill="#F26522"/>
<path d="M76.6272 41.4037H66.8936V46.5266H76.6272V41.4037Z" fill="#4478BC"/>
</g>
<defs>
<clipPath id="clip0">
<rect width="93.0943" height="50" fill="white" transform="translate(3 25)"/>
</clipPath>
</defs>
</svg>
