<svg xmlns="http://www.w3.org/2000/svg" width="400.935" height="121.006" viewBox="0 0 400.935 121.006"><g transform="translate(-7.51 -5.5)"><g transform="translate(183.131 27.112)"><path d="M391.39,69.8c0-9.941,7.6-17.06,17.824-17.06,5.677,0,10.412,2.072,13.51,5.842l-4.877,4.525a10.55,10.55,0,0,0-8.253-3.866A10.1,10.1,0,0,0,399.085,69.8a10.1,10.1,0,0,0,10.509,10.554,10.426,10.426,0,0,0,8.253-3.912l4.877,4.525c-3.1,3.815-7.832,5.892-13.555,5.892C398.984,86.855,391.39,79.741,391.39,69.8Z" transform="translate(-391.39 -52.74)" fill="#010101"/><path d="M493.911,86.965l-6.332-9.186h-6.99v9.186h-7.6V53.98H487.2c8.77,0,14.26,4.57,14.26,11.968a10.721,10.721,0,0,1-6.753,10.412l7.366,10.6h-8.166ZM486.783,60.2h-6.194V71.7h6.19c4.644,0,6.99-2.168,6.99-5.751C493.769,62.32,491.427,60.2,486.783,60.2Z" transform="translate(-435.659 -53.413)" fill="#010101"/><path d="M559.633,75.281V86.965h-7.6V75.185L539.32,53.98h8.066l8.77,14.653,8.77-14.653h7.457Z" transform="translate(-471.644 -53.413)" fill="#010101"/><path d="M613.35,83.045l2.58-5.751a19.247,19.247,0,0,0,10.833,3.44c4.5,0,6.332-1.51,6.332-3.532C633.1,71.031,614,75.272,614,63.021c0-5.609,4.5-10.271,13.834-10.271a21.907,21.907,0,0,1,11.4,2.923l-2.347,5.8a18.478,18.478,0,0,0-9.1-2.594c-4.5,0-6.24,1.7-6.24,3.77,0,6.08,19.091,1.885,19.091,13.995,0,5.513-4.552,10.225-13.931,10.225C621.512,86.86,616.26,85.31,613.35,83.045Z" transform="translate(-511.806 -52.745)" fill="#010101"/><path d="M687.729,60.2H677.22V53.98h28.611V60.2h-10.5V86.965h-7.6Z" transform="translate(-546.456 -53.413)" fill="#010101"/><path d="M763.55,79.9H748.306l-2.91,7.068H737.61L752.245,53.98h7.5l14.681,32.985h-7.974Zm-2.393-5.8-5.206-12.627L750.744,74.1Z" transform="translate(-579.218 -53.413)" fill="#010101"/><path d="M827.53,53.98h7.6V80.743h16.465v6.222H827.535V53.98Z" transform="translate(-628.001 -53.413)" fill="#010101"/></g><path d="M54.787,26.32,50.866,22.4,25.393,48.367l60.5,60.5,60.5-60.5-26.21-26.21L85.9,56.451,72.666,43.225,81,34.894l4.9,4.9L120.19,5.5l42.867,42.867L85.9,126.506,7.51,49.1,50.13,5.5,63.36,17.747Z" fill="#f26522"/><path d="M127.527,23.136l3.916,3.921,8.82-8.82L127.527,5.5,85.15,47.877,127.77,90.5l41.888-41.888L157.163,36.12l-7.594,7.594,4.41,4.406L128.017,74.087,102.05,48.12Z" transform="translate(-42.121)" fill="#4378bd"/><g transform="translate(184.732 79.824)"><path d="M394.89,170.73h8.583c6.748,0,11.291,4.337,11.291,10.541s-4.547,10.541-11.291,10.541H394.89Zm8.464,19.15c5.6,0,9.214-3.555,9.214-8.615s-3.614-8.615-9.214-8.615h-6.236v17.224h6.236Z" transform="translate(-394.89 -169.463)" fill="#010101"/><path d="M457.23,169.465a1.541,1.541,0,0,1,1.565-1.505,1.518,1.518,0,0,1,1.565,1.478,1.565,1.565,0,0,1-3.129.027Zm.48,5h2.136v15.843H457.71Z" transform="translate(-428.71 -167.96)" fill="#010101"/><path d="M481.18,196.069l.965-1.688a9.571,9.571,0,0,0,5.632,1.775c3.01,0,4.246-1.025,4.246-2.589,0-4.127-10.271-.874-10.271-7.137,0-2.589,2.228-4.52,6.263-4.52a10.694,10.694,0,0,1,5.6,1.478l-.933,1.716a8.108,8.108,0,0,0-4.666-1.354c-2.859,0-4.127,1.116-4.127,2.621,0,4.278,10.271,1.052,10.271,7.137,0,2.74-2.411,4.515-6.533,4.515A10.6,10.6,0,0,1,481.18,196.069Z" transform="translate(-441.703 -175.528)" fill="#010101"/><path d="M533.595,192.956a5.083,5.083,0,0,1-3.344,1.116c-2.983,0-4.639-1.688-4.639-4.607V179.89H522.78v-1.807h2.832V174.62h2.137v3.463h4.817v1.807h-4.817v9.456c0,1.867.965,2.891,2.74,2.891a3.515,3.515,0,0,0,2.347-.814Z" transform="translate(-464.272 -171.573)" fill="#010101"/><path d="M572.9,181.92V184c-.183,0-.361-.032-.512-.032-3.312,0-5.33,2.109-5.33,5.842v8.07H564.92V182.034h2.049v3.1C567.958,183.032,569.975,181.92,572.9,181.92Z" transform="translate(-487.133 -175.533)" fill="#010101"/><path d="M599.73,169.465a1.54,1.54,0,0,1,1.565-1.505,1.518,1.518,0,0,1,1.565,1.478,1.565,1.565,0,0,1-3.129.027Zm.48,5h2.136v15.843H600.21Z" transform="translate(-506.018 -167.96)" fill="#010101"/><path d="M644.543,182.39a7.686,7.686,0,0,1-7.892,8.07,6.859,6.859,0,0,1-6.112-3.28v3.134h-2.05V167.97h2.136v9.516a6.922,6.922,0,0,1,6.025-3.134A7.662,7.662,0,0,1,644.543,182.39Zm-2.136,0a5.908,5.908,0,1,0-5.9,6.172A5.815,5.815,0,0,0,642.407,182.39Z" transform="translate(-521.62 -167.965)" fill="#010101"/><path d="M697.225,182.18v15.843h-2.049v-2.891a6.305,6.305,0,0,1-5.691,3.042c-4.035,0-6.684-2.26-6.684-6.807V182.18h2.137v8.976c0,3.372,1.748,5.087,4.758,5.087,3.312,0,5.389-2.136,5.389-5.751V182.18h2.141Z" transform="translate(-551.084 -175.674)" fill="#010101"/><path d="M742.845,192.956a5.083,5.083,0,0,1-3.344,1.116c-2.983,0-4.639-1.688-4.639-4.607V179.89H732.03v-1.807h2.832V174.62H737v3.463h4.817v1.807H737v9.456c0,1.867.965,2.891,2.74,2.891a3.516,3.516,0,0,0,2.347-.814Z" transform="translate(-577.792 -171.573)" fill="#010101"/><path d="M769.42,189.953a8.056,8.056,0,1,1,8.07,8.07A7.791,7.791,0,0,1,769.42,189.953Zm13.944,0c0-3.706-2.5-6.172-5.874-6.172a6.178,6.178,0,0,0,0,12.343C780.866,196.129,783.364,193.658,783.364,189.953Z" transform="translate(-598.077 -175.528)" fill="#010101"/><path d="M832.169,181.92V184c-.183,0-.361-.032-.512-.032-3.312,0-5.33,2.109-5.33,5.842v8.07H824.19V182.034h2.05v3.1C827.232,183.032,829.25,181.92,832.169,181.92Z" transform="translate(-627.79 -175.533)" fill="#010101"/><path d="M855.52,196.069l.965-1.688a9.572,9.572,0,0,0,5.632,1.775c3.01,0,4.245-1.025,4.245-2.589,0-4.127-10.271-.874-10.271-7.137,0-2.589,2.228-4.52,6.263-4.52a10.694,10.694,0,0,1,5.6,1.478l-.933,1.716a8.108,8.108,0,0,0-4.666-1.354c-2.859,0-4.127,1.116-4.127,2.621,0,4.278,10.271,1.052,10.271,7.137,0,2.74-2.411,4.515-6.533,4.515A10.6,10.6,0,0,1,855.52,196.069Z" transform="translate(-644.787 -175.528)" fill="#010101"/></g></g></svg>